# Created by Open3D 
# object name: m858
# number of vertices: 330
# number of triangles: 448
v 0.025 0.5 0.025
vn -1.5708 1.5708 0
v 0.025 0.5 0.12
vn -1.5708 1.5708 0
v 0.975 0.5 0.12
vn 1.5708 1.5708 0
v 0.975 0.5 0.025
vn 1.5708 1.5708 0
v 0.975 0.025 0.12
vn 1.5708 -1.5708 0
v 0.975 0.025 0.025
vn 1.5708 -1.5708 0
v 0.025 0.025 0.12
vn -1.5708 -1.5708 0
v 0.025 0.025 0.025
vn -1.5708 -1.5708 0
v 0.025 0.31 0.025
vn 0 1.5708 0
v 0.025 0.31 0.12
vn 0 1.5708 0
v 0.975 0.31 0.12
vn 0 1.5708 0
v 0.025 0.215 0.025
vn 0 1.5708 0
v 0.025 0.215 0.12
vn 0 1.5708 0
v 0.975 0.215 0.12
vn 0 1.5708 0
v 0.215 0.5 0.025
vn 1.5708 0 0
v 0.215 0.5 0.12
vn 1.5708 0 0
v 0.215 0.31 0.12
vn 1.5708 0 0
v 0.405 0.5 0.025
vn 1.5708 0 0
v 0.405 0.5 0.12
vn 1.5708 0 0
v 0.405 0.31 0.12
vn 1.5708 0 0
v 0.595 0.5 0.025
vn 1.5708 0 0
v 0.595 0.5 0.12
vn 1.5708 0 0
v 0.595 0.31 0.12
vn 1.5708 0 0
v 0.785 0.5 0.025
vn 1.5708 0 0
v 0.785 0.5 0.12
vn 1.5708 0 0
v 0.785 0.31 0.12
vn 1.5708 0 0
v 0.215 0.215 0.025
vn 1.5708 0 0
v 0.215 0.215 0.12
vn 1.5708 0 0
v 0.215 0.025 0.12
vn 1.5708 0 0
v 0.405 0.215 0.025
vn 1.5708 0 0
v 0.405 0.215 0.12
vn 1.5708 0 0
v 0.405 0.025 0.12
vn 1.5708 0 0
v 0.595 0.215 0.025
vn 1.5708 0 0
v 0.595 0.215 0.12
vn 1.5708 0 0
v 0.595 0.025 0.12
vn 1.5708 0 0
v 0.785 0.215 0.025
vn 1.5708 0 0
v 0.785 0.215 0.12
vn 1.5708 0 0
v 0.785 0.025 0.12
vn 1.5708 0 0
v 0.975 0.31 0.025
vn 0 1.5708 0
v 0.975 0.215 0.025
vn 0 1.5708 0
v 0.215 0.31 0.025
vn 1.5708 0 0
v 0.405 0.31 0.025
vn 1.5708 0 0
v 0.595 0.31 0.025
vn 1.5708 0 0
v 0.785 0.31 0.025
vn 1.5708 0 0
v 0.215 0.025 0.025
vn 1.5708 0 0
v 0.405 0.025 0.025
vn 1.5708 0 0
v 0.595 0.025 0.025
vn 1.5708 0 0
v 0.785 0.025 0.025
vn 1.5708 0 0
v 0.025 0.5 0.0725
vn -1.5708 1.5708 0
v 0.5 0.5 0.12
vn 0 1.5708 0
v 0.5 0.5 0.0725
vn 0 1.5708 0
v 0.975 0.5 0.0725
vn 1.5708 1.5708 0
v 0.975 0.2625 0.12
vn 1.5708 0 0
v 0.975 0.2625 0.0725
vn 1.5708 0 0
v 0.975 0.025 0.0725
vn 1.5708 -1.5708 0
v 0.5 0.025 0.12
vn 0 -1.5708 0
v 0.5 0.025 0.0725
vn 0 -1.5708 0
v 0.025 0.025 0.0725
vn -1.5708 -1.5708 0
v 0.025 0.2625 0.12
vn -1.5708 0 0
v 0.025 0.2625 0.0725
vn -1.5708 0 0
v 0.025 0.31 0.0725
vn 0 1.5708 0
v 0.5 0.31 0.12
vn 0 1.5708 0
v 0.5 0.31 0.0725
vn 0 1.5708 0
v 0.025 0.215 0.0725
vn 0 1.5708 0
v 0.5 0.215 0.12
vn 0 1.5708 0
v 0.5 0.215 0.0725
vn 0 1.5708 0
v 0.215 0.5 0.0725
vn 1.5708 0 0
v 0.215 0.405 0.12
vn 1.5708 0 0
v 0.215 0.405 0.0725
vn 1.5708 0 0
v 0.405 0.5 0.0725
vn 1.5708 0 0
v 0.405 0.405 0.12
vn 1.5708 0 0
v 0.405 0.405 0.0725
vn 1.5708 0 0
v 0.595 0.5 0.0725
vn 1.5708 0 0
v 0.595 0.405 0.12
vn 1.5708 0 0
v 0.595 0.405 0.0725
vn 1.5708 0 0
v 0.785 0.5 0.0725
vn 1.5708 0 0
v 0.785 0.405 0.12
vn 1.5708 0 0
v 0.785 0.405 0.0725
vn 1.5708 0 0
v 0.215 0.215 0.0725
vn 1.5708 0 0
v 0.215 0.12 0.12
vn 1.5708 0 0
v 0.215 0.12 0.0725
vn 1.5708 0 0
v 0.405 0.215 0.0725
vn 1.5708 0 0
v 0.405 0.12 0.12
vn 1.5708 0 0
v 0.405 0.12 0.0725
vn 1.5708 0 0
v 0.595 0.215 0.0725
vn 1.5708 0 0
v 0.595 0.12 0.12
vn 1.5708 0 0
v 0.595 0.12 0.0725
vn 1.5708 0 0
v 0.785 0.215 0.0725
vn 1.5708 0 0
v 0.785 0.12 0.12
vn 1.5708 0 0
v 0.785 0.12 0.0725
vn 1.5708 0 0
v 0.5 0.5 0.025
vn 0 1.5708 0
v 0.975 0.2625 0.025
vn 1.5708 0 0
v 0.5 0.025 0.025
vn 0 -1.5708 0
v 0.025 0.2625 0.025
vn -1.5708 0 0
v 0.975 0.31 0.0725
vn 0 1.5708 0
v 0.5 0.31 0.025
vn 0 1.5708 0
v 0.975 0.215 0.0725
vn 0 1.5708 0
v 0.5 0.215 0.025
vn 0 1.5708 0
v 0.215 0.31 0.0725
vn 1.5708 0 0
v 0.215 0.405 0.025
vn 1.5708 0 0
v 0.405 0.31 0.0725
vn 1.5708 0 0
v 0.405 0.405 0.025
vn 1.5708 0 0
v 0.595 0.31 0.0725
vn 1.5708 0 0
v 0.595 0.405 0.025
vn 1.5708 0 0
v 0.785 0.31 0.0725
vn 1.5708 0 0
v 0.785 0.405 0.025
vn 1.5708 0 0
v 0.215 0.025 0.0725
vn 1.5708 0 0
v 0.215 0.12 0.025
vn 1.5708 0 0
v 0.405 0.025 0.0725
vn 1.5708 0 0
v 0.405 0.12 0.025
vn 1.5708 0 0
v 0.595 0.025 0.0725
vn 1.5708 0 0
v 0.595 0.12 0.025
vn 1.5708 0 0
v 0.785 0.025 0.0725
vn 1.5708 0 0
v 0.785 0.12 0.025
vn 1.5708 0 0
v 0.025 0.5 0.04875
vn -1.5708 1.5708 0
v 0.2625 0.5 0.0725
vn -0.785398 1.5708 0
v 0.2625 0.5 0.04875
vn -0.785398 1.5708 0
v 0.025 0.5 0.09625
vn -1.5708 1.5708 0
v 0.2625 0.5 0.12
vn -0.785398 1.5708 0
v 0.2625 0.5 0.09625
vn -0.785398 1.5708 0
v 0.7375 0.5 0.12
vn 0.785398 1.5708 0
v 0.7375 0.5 0.09625
vn 0.785398 1.5708 0
v 0.5 0.5 0.09625
vn 0 1.5708 0
v 0.975 0.5 0.04875
vn 1.5708 1.5708 0
v 0.975 0.38125 0.0725
vn 1.5708 0.785398 0
v 0.975 0.38125 0.04875
vn 1.5708 0.785398 0
v 0.975 0.5 0.09625
vn 1.5708 1.5708 0
v 0.975 0.38125 0.12
vn 1.5708 0.785398 0
v 0.975 0.38125 0.09625
vn 1.5708 0.785398 0
v 0.975 0.14375 0.12
vn 1.5708 -0.785398 0
v 0.975 0.14375 0.09625
vn 1.5708 -0.785398 0
v 0.975 0.2625 0.09625
vn 1.5708 0 0
v 0.975 0.025 0.04875
vn 1.5708 -1.5708 0
v 0.7375 0.025 0.0725
vn 0.785398 -1.5708 0
v 0.7375 0.025 0.04875
vn 0.785398 -1.5708 0
v 0.975 0.025 0.09625
vn 1.5708 -1.5708 0
v 0.7375 0.025 0.12
vn 0.785398 -1.5708 0
v 0.7375 0.025 0.09625
vn 0.785398 -1.5708 0
v 0.2625 0.025 0.12
vn -0.785398 -1.5708 0
v 0.2625 0.025 0.09625
vn -0.785398 -1.5708 0
v 0.5 0.025 0.09625
vn 0 -1.5708 0
v 0.025 0.025 0.04875
vn -1.5708 -1.5708 0
v 0.025 0.14375 0.0725
vn -1.5708 -0.785398 0
v 0.025 0.14375 0.04875
vn -1.5708 -0.785398 0
v 0.025 0.025 0.09625
vn -1.5708 -1.5708 0
v 0.025 0.14375 0.12
vn -1.5708 -0.785398 0
v 0.025 0.14375 0.09625
vn -1.5708 -0.785398 0
v 0.025 0.38125 0.12
vn -1.5708 0.785398 0
v 0.025 0.38125 0.09625
vn -1.5708 0.785398 0
v 0.025 0.2625 0.09625
vn -1.5708 0 0
v 0.025 0.31 0.04875
vn 0 1.5708 0
v 0.2625 0.31 0.0725
vn 0 1.5708 0
v 0.2625 0.31 0.04875
vn 0 1.5708 0
v 0.025 0.31 0.09625
vn 0 1.5708 0
v 0.2625 0.31 0.12
vn 0 1.5708 0
v 0.2625 0.31 0.09625
vn 0 1.5708 0
v 0.7375 0.31 0.12
vn 0 1.5708 0
v 0.7375 0.31 0.09625
vn 0 1.5708 0
v 0.5 0.31 0.09625
vn 0 1.5708 0
v 0.025 0.215 0.04875
vn 0 1.5708 0
v 0.2625 0.215 0.0725
vn 0 1.5708 0
v 0.2625 0.215 0.04875
vn 0 1.5708 0
v 0.025 0.215 0.09625
vn 0 1.5708 0
v 0.2625 0.215 0.12
vn 0 1.5708 0
v 0.2625 0.215 0.09625
vn 0 1.5708 0
v 0.7375 0.215 0.12
vn 0 1.5708 0
v 0.7375 0.215 0.09625
vn 0 1.5708 0
v 0.5 0.215 0.09625
vn 0 1.5708 0
v 0.215 0.5 0.04875
vn 1.5708 0 0
v 0.215 0.4525 0.0725
vn 1.5708 0 0
v 0.215 0.4525 0.04875
vn 1.5708 0 0
v 0.215 0.5 0.09625
vn 1.5708 0 0
v 0.215 0.4525 0.12
vn 1.5708 0 0
v 0.215 0.4525 0.09625
vn 1.5708 0 0
v 0.215 0.3575 0.12
vn 1.5708 0 0
v 0.215 0.3575 0.09625
vn 1.5708 0 0
v 0.215 0.405 0.09625
vn 1.5708 0 0
v 0.405 0.5 0.04875
vn 1.5708 0 0
v 0.405 0.4525 0.0725
vn 1.5708 0 0
v 0.405 0.4525 0.04875
vn 1.5708 0 0
v 0.405 0.5 0.09625
vn 1.5708 0 0
v 0.405 0.4525 0.12
vn 1.5708 0 0
v 0.405 0.4525 0.09625
vn 1.5708 0 0
v 0.405 0.3575 0.12
vn 1.5708 0 0
v 0.405 0.3575 0.09625
vn 1.5708 0 0
v 0.405 0.405 0.09625
vn 1.5708 0 0
v 0.595 0.5 0.04875
vn 1.5708 0 0
v 0.595 0.4525 0.0725
vn 1.5708 0 0
v 0.595 0.4525 0.04875
vn 1.5708 0 0
v 0.595 0.5 0.09625
vn 1.5708 0 0
v 0.595 0.4525 0.12
vn 1.5708 0 0
v 0.595 0.4525 0.09625
vn 1.5708 0 0
v 0.595 0.3575 0.12
vn 1.5708 0 0
v 0.595 0.3575 0.09625
vn 1.5708 0 0
v 0.595 0.405 0.09625
vn 1.5708 0 0
v 0.785 0.5 0.04875
vn 1.5708 0 0
v 0.785 0.4525 0.0725
vn 1.5708 0 0
v 0.785 0.4525 0.04875
vn 1.5708 0 0
v 0.785 0.5 0.09625
vn 1.5708 0 0
v 0.785 0.4525 0.12
vn 1.5708 0 0
v 0.785 0.4525 0.09625
vn 1.5708 0 0
v 0.785 0.3575 0.12
vn 1.5708 0 0
v 0.785 0.3575 0.09625
vn 1.5708 0 0
v 0.785 0.405 0.09625
vn 1.5708 0 0
v 0.215 0.215 0.04875
vn 1.5708 0 0
v 0.215 0.1675 0.0725
vn 1.5708 0 0
v 0.215 0.1675 0.04875
vn 1.5708 0 0
v 0.215 0.215 0.09625
vn 1.5708 0 0
v 0.215 0.1675 0.12
vn 1.5708 0 0
v 0.215 0.1675 0.09625
vn 1.5708 0 0
v 0.215 0.0725 0.12
vn 1.5708 0 0
v 0.215 0.0725 0.09625
vn 1.5708 0 0
v 0.215 0.12 0.09625
vn 1.5708 0 0
v 0.405 0.215 0.04875
vn 1.5708 0 0
v 0.405 0.1675 0.0725
vn 1.5708 0 0
v 0.405 0.1675 0.04875
vn 1.5708 0 0
v 0.405 0.215 0.09625
vn 1.5708 0 0
v 0.405 0.1675 0.12
vn 1.5708 0 0
v 0.405 0.1675 0.09625
vn 1.5708 0 0
v 0.405 0.0725 0.12
vn 1.5708 0 0
v 0.405 0.0725 0.09625
vn 1.5708 0 0
v 0.405 0.12 0.09625
vn 1.5708 0 0
v 0.595 0.215 0.04875
vn 1.5708 0 0
v 0.595 0.1675 0.0725
vn 1.5708 0 0
v 0.595 0.1675 0.04875
vn 1.5708 0 0
v 0.595 0.215 0.09625
vn 1.5708 0 0
v 0.595 0.1675 0.12
vn 1.5708 0 0
v 0.595 0.1675 0.09625
vn 1.5708 0 0
v 0.595 0.0725 0.12
vn 1.5708 0 0
v 0.595 0.0725 0.09625
vn 1.5708 0 0
v 0.595 0.12 0.09625
vn 1.5708 0 0
v 0.785 0.215 0.04875
vn 1.5708 0 0
v 0.785 0.1675 0.0725
vn 1.5708 0 0
v 0.785 0.1675 0.04875
vn 1.5708 0 0
v 0.785 0.215 0.09625
vn 1.5708 0 0
v 0.785 0.1675 0.12
vn 1.5708 0 0
v 0.785 0.1675 0.09625
vn 1.5708 0 0
v 0.785 0.0725 0.12
vn 1.5708 0 0
v 0.785 0.0725 0.09625
vn 1.5708 0 0
v 0.785 0.12 0.09625
vn 1.5708 0 0
v 0.5 0.5 0.04875
vn 0 1.5708 0
v 0.2625 0.5 0.025
vn -0.785398 1.5708 0
v 0.7375 0.5 0.0725
vn 0.785398 1.5708 0
v 0.7375 0.5 0.025
vn 0.785398 1.5708 0
v 0.7375 0.5 0.04875
vn 0.785398 1.5708 0
v 0.975 0.2625 0.04875
vn 1.5708 0 0
v 0.975 0.38125 0.025
vn 1.5708 0.785398 0
v 0.975 0.14375 0.0725
vn 1.5708 -0.785398 0
v 0.975 0.14375 0.025
vn 1.5708 -0.785398 0
v 0.975 0.14375 0.04875
vn 1.5708 -0.785398 0
v 0.5 0.025 0.04875
vn 0 -1.5708 0
v 0.7375 0.025 0.025
vn 0.785398 -1.5708 0
v 0.2625 0.025 0.0725
vn -0.785398 -1.5708 0
v 0.2625 0.025 0.025
vn -0.785398 -1.5708 0
v 0.2625 0.025 0.04875
vn -0.785398 -1.5708 0
v 0.025 0.2625 0.04875
vn -1.5708 0 0
v 0.025 0.14375 0.025
vn -1.5708 -0.785398 0
v 0.025 0.38125 0.0725
vn -1.5708 0.785398 0
v 0.025 0.38125 0.025
vn -1.5708 0.785398 0
v 0.025 0.38125 0.04875
vn -1.5708 0.785398 0
v 0.5 0.31 0.04875
vn 0 1.5708 0
v 0.2625 0.31 0.025
vn 0 1.5708 0
v 0.975 0.31 0.09625
vn 0 1.5708 0
v 0.7375 0.31 0.0725
vn 0 1.5708 0
v 0.975 0.31 0.04875
vn 0 1.5708 0
v 0.7375 0.31 0.025
vn 0 1.5708 0
v 0.7375 0.31 0.04875
vn 0 1.5708 0
v 0.5 0.215 0.04875
vn 0 1.5708 0
v 0.2625 0.215 0.025
vn 0 1.5708 0
v 0.975 0.215 0.09625
vn 0 1.5708 0
v 0.7375 0.215 0.0725
vn 0 1.5708 0
v 0.975 0.215 0.04875
vn 0 1.5708 0
v 0.7375 0.215 0.025
vn 0 1.5708 0
v 0.7375 0.215 0.04875
vn 0 1.5708 0
v 0.215 0.405 0.04875
vn 1.5708 0 0
v 0.215 0.4525 0.025
vn 1.5708 0 0
v 0.215 0.31 0.09625
vn 1.5708 0 0
v 0.215 0.3575 0.0725
vn 1.5708 0 0
v 0.215 0.31 0.04875
vn 1.5708 0 0
v 0.215 0.3575 0.025
vn 1.5708 0 0
v 0.215 0.3575 0.04875
vn 1.5708 0 0
v 0.405 0.405 0.04875
vn 1.5708 0 0
v 0.405 0.4525 0.025
vn 1.5708 0 0
v 0.405 0.31 0.09625
vn 1.5708 0 0
v 0.405 0.3575 0.0725
vn 1.5708 0 0
v 0.405 0.31 0.04875
vn 1.5708 0 0
v 0.405 0.3575 0.025
vn 1.5708 0 0
v 0.405 0.3575 0.04875
vn 1.5708 0 0
v 0.595 0.405 0.04875
vn 1.5708 0 0
v 0.595 0.4525 0.025
vn 1.5708 0 0
v 0.595 0.31 0.09625
vn 1.5708 0 0
v 0.595 0.3575 0.0725
vn 1.5708 0 0
v 0.595 0.31 0.04875
vn 1.5708 0 0
v 0.595 0.3575 0.025
vn 1.5708 0 0
v 0.595 0.3575 0.04875
vn 1.5708 0 0
v 0.785 0.405 0.04875
vn 1.5708 0 0
v 0.785 0.4525 0.025
vn 1.5708 0 0
v 0.785 0.31 0.09625
vn 1.5708 0 0
v 0.785 0.3575 0.0725
vn 1.5708 0 0
v 0.785 0.31 0.04875
vn 1.5708 0 0
v 0.785 0.3575 0.025
vn 1.5708 0 0
v 0.785 0.3575 0.04875
vn 1.5708 0 0
v 0.215 0.12 0.04875
vn 1.5708 0 0
v 0.215 0.1675 0.025
vn 1.5708 0 0
v 0.215 0.025 0.09625
vn 1.5708 0 0
v 0.215 0.0725 0.0725
vn 1.5708 0 0
v 0.215 0.025 0.04875
vn 1.5708 0 0
v 0.215 0.0725 0.025
vn 1.5708 0 0
v 0.215 0.0725 0.04875
vn 1.5708 0 0
v 0.405 0.12 0.04875
vn 1.5708 0 0
v 0.405 0.1675 0.025
vn 1.5708 0 0
v 0.405 0.025 0.09625
vn 1.5708 0 0
v 0.405 0.0725 0.0725
vn 1.5708 0 0
v 0.405 0.025 0.04875
vn 1.5708 0 0
v 0.405 0.0725 0.025
vn 1.5708 0 0
v 0.405 0.0725 0.04875
vn 1.5708 0 0
v 0.595 0.12 0.04875
vn 1.5708 0 0
v 0.595 0.1675 0.025
vn 1.5708 0 0
v 0.595 0.025 0.09625
vn 1.5708 0 0
v 0.595 0.0725 0.0725
vn 1.5708 0 0
v 0.595 0.025 0.04875
vn 1.5708 0 0
v 0.595 0.0725 0.025
vn 1.5708 0 0
v 0.595 0.0725 0.04875
vn 1.5708 0 0
v 0.785 0.12 0.04875
vn 1.5708 0 0
v 0.785 0.1675 0.025
vn 1.5708 0 0
v 0.785 0.025 0.09625
vn 1.5708 0 0
v 0.785 0.0725 0.0725
vn 1.5708 0 0
v 0.785 0.025 0.04875
vn 1.5708 0 0
v 0.785 0.0725 0.025
vn 1.5708 0 0
v 0.785 0.0725 0.04875
vn 1.5708 0 0
f 1//1 115//115 117//117
f 115//115 49//49 116//116
f 116//116 51//51 117//117
f 115//115 116//116 117//117
f 49//49 118//118 120//120
f 118//118 2//2 119//119
f 119//119 50//50 120//120
f 118//118 119//119 120//120
f 50//50 121//121 123//123
f 121//121 3//3 122//122
f 122//122 51//51 123//123
f 121//121 122//122 123//123
f 49//49 120//120 116//116
f 120//120 50//50 123//123
f 123//123 51//51 116//116
f 120//120 123//123 116//116
f 4//4 124//124 126//126
f 124//124 52//52 125//125
f 125//125 54//54 126//126
f 124//124 125//125 126//126
f 52//52 127//127 129//129
f 127//127 3//3 128//128
f 128//128 53//53 129//129
f 127//127 128//128 129//129
f 53//53 130//130 132//132
f 130//130 5//5 131//131
f 131//131 54//54 132//132
f 130//130 131//131 132//132
f 52//52 129//129 125//125
f 129//129 53//53 132//132
f 132//132 54//54 125//125
f 129//129 132//132 125//125
f 6//6 133//133 135//135
f 133//133 55//55 134//134
f 134//134 57//57 135//135
f 133//133 134//134 135//135
f 55//55 136//136 138//138
f 136//136 5//5 137//137
f 137//137 56//56 138//138
f 136//136 137//137 138//138
f 56//56 139//139 141//141
f 139//139 7//7 140//140
f 140//140 57//57 141//141
f 139//139 140//140 141//141
f 55//55 138//138 134//134
f 138//138 56//56 141//141
f 141//141 57//57 134//134
f 138//138 141//141 134//134
f 8//8 142//142 144//144
f 142//142 58//58 143//143
f 143//143 60//60 144//144
f 142//142 143//143 144//144
f 58//58 145//145 147//147
f 145//145 7//7 146//146
f 146//146 59//59 147//147
f 145//145 146//146 147//147
f 59//59 148//148 150//150
f 148//148 2//2 149//149
f 149//149 60//60 150//150
f 148//148 149//149 150//150
f 58//58 147//147 143//143
f 147//147 59//59 150//150
f 150//150 60//60 143//143
f 147//147 150//150 143//143
f 9//9 151//151 153//153
f 151//151 61//61 152//152
f 152//152 63//63 153//153
f 151//151 152//152 153//153
f 61//61 154//154 156//156
f 154//154 10//10 155//155
f 155//155 62//62 156//156
f 154//154 155//155 156//156
f 62//62 157//157 159//159
f 157//157 11//11 158//158
f 158//158 63//63 159//159
f 157//157 158//158 159//159
f 61//61 156//156 152//152
f 156//156 62//62 159//159
f 159//159 63//63 152//152
f 156//156 159//159 152//152
f 12//12 160//160 162//162
f 160//160 64//64 161//161
f 161//161 66//66 162//162
f 160//160 161//161 162//162
f 64//64 163//163 165//165
f 163//163 13//13 164//164
f 164//164 65//65 165//165
f 163//163 164//164 165//165
f 65//65 166//166 168//168
f 166//166 14//14 167//167
f 167//167 66//66 168//168
f 166//166 167//167 168//168
f 64//64 165//165 161//161
f 165//165 65//65 168//168
f 168//168 66//66 161//161
f 165//165 168//168 161//161
f 15//15 169//169 171//171
f 169//169 67//67 170//170
f 170//170 69//69 171//171
f 169//169 170//170 171//171
f 67//67 172//172 174//174
f 172//172 16//16 173//173
f 173//173 68//68 174//174
f 172//172 173//173 174//174
f 68//68 175//175 177//177
f 175//175 17//17 176//176
f 176//176 69//69 177//177
f 175//175 176//176 177//177
f 67//67 174//174 170//170
f 174//174 68//68 177//177
f 177//177 69//69 170//170
f 174//174 177//177 170//170
f 18//18 178//178 180//180
f 178//178 70//70 179//179
f 179//179 72//72 180//180
f 178//178 179//179 180//180
f 70//70 181//181 183//183
f 181//181 19//19 182//182
f 182//182 71//71 183//183
f 181//181 182//182 183//183
f 71//71 184//184 186//186
f 184//184 20//20 185//185
f 185//185 72//72 186//186
f 184//184 185//185 186//186
f 70//70 183//183 179//179
f 183//183 71//71 186//186
f 186//186 72//72 179//179
f 183//183 186//186 179//179
f 21//21 187//187 189//189
f 187//187 73//73 188//188
f 188//188 75//75 189//189
f 187//187 188//188 189//189
f 73//73 190//190 192//192
f 190//190 22//22 191//191
f 191//191 74//74 192//192
f 190//190 191//191 192//192
f 74//74 193//193 195//195
f 193//193 23//23 194//194
f 194//194 75//75 195//195
f 193//193 194//194 195//195
f 73//73 192//192 188//188
f 192//192 74//74 195//195
f 195//195 75//75 188//188
f 192//192 195//195 188//188
f 24//24 196//196 198//198
f 196//196 76//76 197//197
f 197//197 78//78 198//198
f 196//196 197//197 198//198
f 76//76 199//199 201//201
f 199//199 25//25 200//200
f 200//200 77//77 201//201
f 199//199 200//200 201//201
f 77//77 202//202 204//204
f 202//202 26//26 203//203
f 203//203 78//78 204//204
f 202//202 203//203 204//204
f 76//76 201//201 197//197
f 201//201 77//77 204//204
f 204//204 78//78 197//197
f 201//201 204//204 197//197
f 27//27 205//205 207//207
f 205//205 79//79 206//206
f 206//206 81//81 207//207
f 205//205 206//206 207//207
f 79//79 208//208 210//210
f 208//208 28//28 209//209
f 209//209 80//80 210//210
f 208//208 209//209 210//210
f 80//80 211//211 213//213
f 211//211 29//29 212//212
f 212//212 81//81 213//213
f 211//211 212//212 213//213
f 79//79 210//210 206//206
f 210//210 80//80 213//213
f 213//213 81//81 206//206
f 210//210 213//213 206//206
f 30//30 214//214 216//216
f 214//214 82//82 215//215
f 215//215 84//84 216//216
f 214//214 215//215 216//216
f 82//82 217//217 219//219
f 217//217 31//31 218//218
f 218//218 83//83 219//219
f 217//217 218//218 219//219
f 83//83 220//220 222//222
f 220//220 32//32 221//221
f 221//221 84//84 222//222
f 220//220 221//221 222//222
f 82//82 219//219 215//215
f 219//219 83//83 222//222
f 222//222 84//84 215//215
f 219//219 222//222 215//215
f 33//33 223//223 225//225
f 223//223 85//85 224//224
f 224//224 87//87 225//225
f 223//223 224//224 225//225
f 85//85 226//226 228//228
f 226//226 34//34 227//227
f 227//227 86//86 228//228
f 226//226 227//227 228//228
f 86//86 229//229 231//231
f 229//229 35//35 230//230
f 230//230 87//87 231//231
f 229//229 230//230 231//231
f 85//85 228//228 224//224
f 228//228 86//86 231//231
f 231//231 87//87 224//224
f 228//228 231//231 224//224
f 36//36 232//232 234//234
f 232//232 88//88 233//233
f 233//233 90//90 234//234
f 232//232 233//233 234//234
f 88//88 235//235 237//237
f 235//235 37//37 236//236
f 236//236 89//89 237//237
f 235//235 236//236 237//237
f 89//89 238//238 240//240
f 238//238 38//38 239//239
f 239//239 90//90 240//240
f 238//238 239//239 240//240
f 88//88 237//237 233//233
f 237//237 89//89 240//240
f 240//240 90//90 233//233
f 237//237 240//240 233//233
f 1//1 117//117 242//242
f 117//117 51//51 241//241
f 241//241 91//91 242//242
f 117//117 241//241 242//242
f 51//51 122//122 243//243
f 122//122 3//3 127//127
f 127//127 52//52 243//243
f 122//122 127//127 243//243
f 52//52 124//124 245//245
f 124//124 4//4 244//244
f 244//244 91//91 245//245
f 124//124 244//244 245//245
f 51//51 243//243 241//241
f 243//243 52//52 245//245
f 245//245 91//91 241//241
f 243//243 245//245 241//241
f 4//4 126//126 247//247
f 126//126 54//54 246//246
f 246//246 92//92 247//247
f 126//126 246//246 247//247
f 54//54 131//131 248//248
f 131//131 5//5 136//136
f 136//136 55//55 248//248
f 131//131 136//136 248//248
f 55//55 133//133 250//250
f 133//133 6//6 249//249
f 249//249 92//92 250//250
f 133//133 249//249 250//250
f 54//54 248//248 246//246
f 248//248 55//55 250//250
f 250//250 92//92 246//246
f 248//248 250//250 246//246
f 6//6 135//135 252//252
f 135//135 57//57 251//251
f 251//251 93//93 252//252
f 135//135 251//251 252//252
f 57//57 140//140 253//253
f 140//140 7//7 145//145
f 145//145 58//58 253//253
f 140//140 145//145 253//253
f 58//58 142//142 255//255
f 142//142 8//8 254//254
f 254//254 93//93 255//255
f 142//142 254//254 255//255
f 57//57 253//253 251//251
f 253//253 58//58 255//255
f 255//255 93//93 251//251
f 253//253 255//255 251//251
f 8//8 144//144 257//257
f 144//144 60//60 256//256
f 256//256 94//94 257//257
f 144//144 256//256 257//257
f 60//60 149//149 258//258
f 149//149 2//2 118//118
f 118//118 49//49 258//258
f 149//149 118//118 258//258
f 49//49 115//115 260//260
f 115//115 1//1 259//259
f 259//259 94//94 260//260
f 115//115 259//259 260//260
f 60//60 258//258 256//256
f 258//258 49//49 260//260
f 260//260 94//94 256//256
f 258//258 260//260 256//256
f 9//9 153//153 262//262
f 153//153 63//63 261//261
f 261//261 96//96 262//262
f 153//153 261//261 262//262
f 63//63 158//158 264//264
f 158//158 11//11 263//263
f 263//263 95//95 264//264
f 158//158 263//263 264//264
f 95//95 265//265 267//267
f 265//265 39//39 266//266
f 266//266 96//96 267//267
f 265//265 266//266 267//267
f 63//63 264//264 261//261
f 264//264 95//95 267//267
f 267//267 96//96 261//261
f 264//264 267//267 261//261
f 12//12 162//162 269//269
f 162//162 66//66 268//268
f 268//268 98//98 269//269
f 162//162 268//268 269//269
f 66//66 167//167 271//271
f 167//167 14//14 270//270
f 270//270 97//97 271//271
f 167//167 270//270 271//271
f 97//97 272//272 274//274
f 272//272 40//40 273//273
f 273//273 98//98 274//274
f 272//272 273//273 274//274
f 66//66 271//271 268//268
f 271//271 97//97 274//274
f 274//274 98//98 268//268
f 271//271 274//274 268//268
f 15//15 171//171 276//276
f 171//171 69//69 275//275
f 275//275 100//100 276//276
f 171//171 275//275 276//276
f 69//69 176//176 278//278
f 176//176 17//17 277//277
f 277//277 99//99 278//278
f 176//176 277//277 278//278
f 99//99 279//279 281//281
f 279//279 41//41 280//280
f 280//280 100//100 281//281
f 279//279 280//280 281//281
f 69//69 278//278 275//275
f 278//278 99//99 281//281
f 281//281 100//100 275//275
f 278//278 281//281 275//275
f 18//18 180//180 283//283
f 180//180 72//72 282//282
f 282//282 102//102 283//283
f 180//180 282//282 283//283
f 72//72 185//185 285//285
f 185//185 20//20 284//284
f 284//284 101//101 285//285
f 185//185 284//284 285//285
f 101//101 286//286 288//288
f 286//286 42//42 287//287
f 287//287 102//102 288//288
f 286//286 287//287 288//288
f 72//72 285//285 282//282
f 285//285 101//101 288//288
f 288//288 102//102 282//282
f 285//285 288//288 282//282
f 21//21 189//189 290//290
f 189//189 75//75 289//289
f 289//289 104//104 290//290
f 189//189 289//289 290//290
f 75//75 194//194 292//292
f 194//194 23//23 291//291
f 291//291 103//103 292//292
f 194//194 291//291 292//292
f 103//103 293//293 295//295
f 293//293 43//43 294//294
f 294//294 104//104 295//295
f 293//293 294//294 295//295
f 75//75 292//292 289//289
f 292//292 103//103 295//295
f 295//295 104//104 289//289
f 292//292 295//295 289//289
f 24//24 198//198 297//297
f 198//198 78//78 296//296
f 296//296 106//106 297//297
f 198//198 296//296 297//297
f 78//78 203//203 299//299
f 203//203 26//26 298//298
f 298//298 105//105 299//299
f 203//203 298//298 299//299
f 105//105 300//300 302//302
f 300//300 44//44 301//301
f 301//301 106//106 302//302
f 300//300 301//301 302//302
f 78//78 299//299 296//296
f 299//299 105//105 302//302
f 302//302 106//106 296//296
f 299//299 302//302 296//296
f 27//27 207//207 304//304
f 207//207 81//81 303//303
f 303//303 108//108 304//304
f 207//207 303//303 304//304
f 81//81 212//212 306//306
f 212//212 29//29 305//305
f 305//305 107//107 306//306
f 212//212 305//305 306//306
f 107//107 307//307 309//309
f 307//307 45//45 308//308
f 308//308 108//108 309//309
f 307//307 308//308 309//309
f 81//81 306//306 303//303
f 306//306 107//107 309//309
f 309//309 108//108 303//303
f 306//306 309//309 303//303
f 30//30 216//216 311//311
f 216//216 84//84 310//310
f 310//310 110//110 311//311
f 216//216 310//310 311//311
f 84//84 221//221 313//313
f 221//221 32//32 312//312
f 312//312 109//109 313//313
f 221//221 312//312 313//313
f 109//109 314//314 316//316
f 314//314 46//46 315//315
f 315//315 110//110 316//316
f 314//314 315//315 316//316
f 84//84 313//313 310//310
f 313//313 109//109 316//316
f 316//316 110//110 310//310
f 313//313 316//316 310//310
f 33//33 225//225 318//318
f 225//225 87//87 317//317
f 317//317 112//112 318//318
f 225//225 317//317 318//318
f 87//87 230//230 320//320
f 230//230 35//35 319//319
f 319//319 111//111 320//320
f 230//230 319//319 320//320
f 111//111 321//321 323//323
f 321//321 47//47 322//322
f 322//322 112//112 323//323
f 321//321 322//322 323//323
f 87//87 320//320 317//317
f 320//320 111//111 323//323
f 323//323 112//112 317//317
f 320//320 323//323 317//317
f 36//36 234//234 325//325
f 234//234 90//90 324//324
f 324//324 114//114 325//325
f 234//234 324//324 325//325
f 90//90 239//239 327//327
f 239//239 38//38 326//326
f 326//326 113//113 327//327
f 239//239 326//326 327//327
f 113//113 328//328 330//330
f 328//328 48//48 329//329
f 329//329 114//114 330//330
f 328//328 329//329 330//330
f 90//90 327//327 324//324
f 327//327 113//113 330//330
f 330//330 114//114 324//324
f 327//327 330//330 324//324
